<svg xmlns="http://www.w3.org/2000/svg" viewBox="0 0 800 1000" width="800" height="1000" role="img" aria-label="Natural">
<defs>
<linearGradient id="g12a" x1="0" y1="0" x2="0.35" y2="1"><stop offset="0" stop-color="#EFE3D8"/><stop offset="1" stop-color="#DCC6B4"/></linearGradient>
<radialGradient id="g12b" cx="0.5" cy="0.5" r="0.5"><stop offset="0" stop-color="#F6EEE6" stop-opacity="0.95"/><stop offset="1" stop-color="#F6EEE6" stop-opacity="0"/></radialGradient>
<filter id="g12c" x="-30%" y="-30%" width="160%" height="160%"><feGaussianBlur stdDeviation="30.0"/></filter>
</defs>
<rect width="800" height="1000" fill="url(#g12a)"/>
<path d="M 605.2 610.2 Q 605.2 610.2 553.1 682.5 Q 501.1 754.9 413.9 812.0 Q 326.7 869.2 251.6 790.1 Q 176.6 710.9 178.8 611.3 Q 181.0 511.6 254.0 432.1 Q 326.9 352.6 410.8 413.1 Q 494.7 473.6 549.9 541.9 Z" fill="#C9A88C" opacity="0.21" filter="url(#g12c)"/>
<path d="M 262.2 412.3 Q 262.2 412.3 249.3 481.5 Q 236.5 550.7 163.3 560.4 Q 90.1 570.0 16.1 535.5 Q -58.0 501.0 -46.8 417.7 Q -35.7 334.4 26.1 289.5 Q 87.8 244.7 171.2 247.9 Q 254.7 251.1 258.4 331.7 Z" fill="#F6EEE6" opacity="0.34" filter="url(#g12c)"/>
<path d="M 712.4 571.0 Q 712.4 571.0 676.4 654.8 Q 640.3 738.6 552.9 745.0 Q 465.5 751.5 374.7 714.9 Q 283.9 678.3 292.9 575.3 Q 301.8 472.3 378.6 409.3 Q 455.4 346.3 543.6 380.3 Q 631.8 414.2 672.1 492.6 Z" fill="#C9A88C" opacity="0.31" filter="url(#g12c)"/>
<ellipse cx="400" cy="420" rx="336" ry="360" fill="url(#g12b)"/>
<path d="M 0 620 Q 400 520 800 620" fill="none" stroke="#C9A88C" stroke-opacity="0.22" stroke-width="1.6"/>
<path d="M 0 760 Q 400 660 800 760" fill="none" stroke="#C9A88C" stroke-opacity="0.22" stroke-width="1.6"/>
<text x="400" y="530" text-anchor="middle" font-family="Cormorant Garamond, Georgia, serif" font-size="88" fill="#2E2823" fill-opacity="0.30" letter-spacing="15.8">CB</text>
<text x="400" y="614" text-anchor="middle" font-family="Jost, Helvetica, Arial, sans-serif" font-size="22" fill="#2E2823" fill-opacity="0.35" letter-spacing="9.6">NATURAL</text>
</svg>