<svg xmlns="http://www.w3.org/2000/svg" viewBox="0 0 800 600" width="800" height="600" role="img" aria-label="Events">
<defs>
<linearGradient id="g42a" x1="0" y1="0" x2="0.35" y2="1"><stop offset="0" stop-color="#EFE3D8"/><stop offset="1" stop-color="#DCC6B4"/></linearGradient>
<radialGradient id="g42b" cx="0.5" cy="0.5" r="0.5"><stop offset="0" stop-color="#F6EEE6" stop-opacity="0.95"/><stop offset="1" stop-color="#F6EEE6" stop-opacity="0"/></radialGradient>
<filter id="g42c" x="-30%" y="-30%" width="160%" height="160%"><feGaussianBlur stdDeviation="24.0"/></filter>
</defs>
<rect width="800" height="600" fill="url(#g42a)"/>
<path d="M 576.5 100.5 Q 576.5 100.5 572.5 157.2 Q 568.5 213.9 510.7 212.6 Q 452.8 211.3 419.2 178.2 Q 385.6 145.1 369.7 92.9 Q 353.9 40.7 400.7 3.7 Q 447.5 -33.4 493.5 -5.0 Q 539.6 23.4 558.0 61.9 Z" fill="#C9A88C" opacity="0.22" filter="url(#g42c)"/>
<path d="M 730.1 374.2 Q 730.1 374.2 691.7 450.0 Q 653.3 525.8 568.8 555.6 Q 484.2 585.3 425.7 519.6 Q 367.2 453.8 367.4 374.3 Q 367.6 294.8 431.3 252.5 Q 495.0 210.1 580.8 208.0 Q 666.7 205.9 698.4 290.0 Z" fill="#F6EEE6" opacity="0.20" filter="url(#g42c)"/>
<path d="M 472.0 102.5 Q 472.0 102.5 443.2 139.0 Q 414.4 175.4 368.6 212.3 Q 322.8 249.3 281.6 203.8 Q 240.3 158.3 239.9 102.3 Q 239.4 46.3 285.5 20.4 Q 331.6 -5.5 373.6 11.4 Q 415.5 28.2 443.8 65.4 Z" fill="#C9A88C" opacity="0.28" filter="url(#g42c)"/>
<ellipse cx="400" cy="252" rx="336" ry="216" fill="url(#g42b)"/>
<path d="M 0 372 Q 400 312 800 372" fill="none" stroke="#C9A88C" stroke-opacity="0.22" stroke-width="1.6"/>
<path d="M 0 456 Q 400 396 800 456" fill="none" stroke="#C9A88C" stroke-opacity="0.22" stroke-width="1.6"/>
<text x="400" y="318" text-anchor="middle" font-family="Cormorant Garamond, Georgia, serif" font-size="66" fill="#2E2823" fill-opacity="0.30" letter-spacing="11.9">CB</text>
<text x="400" y="381" text-anchor="middle" font-family="Jost, Helvetica, Arial, sans-serif" font-size="17" fill="#2E2823" fill-opacity="0.35" letter-spacing="7.2">EVENTS</text>
</svg>