<svg xmlns="http://www.w3.org/2000/svg" viewBox="0 0 800 600" width="800" height="600" role="img" aria-label="Editorial">
<defs>
<linearGradient id="g43a" x1="0" y1="0" x2="0.35" y2="1"><stop offset="0" stop-color="#F2E7E1"/><stop offset="1" stop-color="#E0C8C0"/></linearGradient>
<radialGradient id="g43b" cx="0.5" cy="0.5" r="0.5"><stop offset="0" stop-color="#FAF3EF" stop-opacity="0.95"/><stop offset="1" stop-color="#FAF3EF" stop-opacity="0"/></radialGradient>
<filter id="g43c" x="-30%" y="-30%" width="160%" height="160%"><feGaussianBlur stdDeviation="24.0"/></filter>
</defs>
<rect width="800" height="600" fill="url(#g43a)"/>
<path d="M 244.5 382.4 Q 244.5 382.4 222.8 419.7 Q 201.1 457.0 160.6 466.7 Q 120.1 476.4 86.0 451.0 Q 51.8 425.7 49.1 381.1 Q 46.4 336.6 79.1 294.4 Q 111.9 252.2 169.6 263.5 Q 227.4 274.9 236.0 328.6 Z" fill="#CDA898" opacity="0.27" filter="url(#g43c)"/>
<path d="M 672.6 423.0 Q 672.6 423.0 635.3 486.9 Q 597.9 550.7 527.7 571.4 Q 457.5 592.2 403.0 543.2 Q 348.5 494.1 373.1 434.9 Q 397.7 375.7 431.5 331.6 Q 465.2 287.6 518.1 308.4 Q 571.0 329.2 621.8 376.1 Z" fill="#FAF3EF" opacity="0.28" filter="url(#g43c)"/>
<path d="M 272.8 271.6 Q 272.8 271.6 247.7 329.2 Q 222.6 386.9 164.7 381.7 Q 106.8 376.6 48.1 358.1 Q -10.5 339.6 2.0 277.6 Q 14.4 215.6 55.9 170.4 Q 97.3 125.2 150.0 153.2 Q 202.8 181.3 237.8 226.4 Z" fill="#CDA898" opacity="0.35" filter="url(#g43c)"/>
<ellipse cx="400" cy="252" rx="336" ry="216" fill="url(#g43b)"/>
<path d="M 0 372 Q 400 312 800 372" fill="none" stroke="#CDA898" stroke-opacity="0.22" stroke-width="1.6"/>
<path d="M 0 456 Q 400 396 800 456" fill="none" stroke="#CDA898" stroke-opacity="0.22" stroke-width="1.6"/>
<text x="400" y="318" text-anchor="middle" font-family="Cormorant Garamond, Georgia, serif" font-size="66" fill="#2E2823" fill-opacity="0.30" letter-spacing="11.9">CB</text>
<text x="400" y="381" text-anchor="middle" font-family="Jost, Helvetica, Arial, sans-serif" font-size="17" fill="#2E2823" fill-opacity="0.35" letter-spacing="7.2">EDITORIAL</text>
</svg>